<svg width="95" height="100" viewBox="0 0 95 100" fill="none" xmlns="http://www.w3.org/2000/svg">
<path d="M63.7831 38.7671C57.1296 38.7671 50.3568 38.4946 44.0212 36.7153C37.8048 34.976 32.0972 31.6017 27.0097 27.6983C23.6789 25.1575 20.6502 23.1377 16.3258 23.4423C12.0916 23.676 8.04456 25.2779 4.78344 28.0109C-0.717471 32.8199 0.109255 41.8209 2.31121 48.1448C5.61812 57.6667 15.6819 64.2631 24.2354 68.5752C34.1163 73.5526 44.9751 76.438 55.8577 78.1052C65.3968 79.5639 77.6546 80.6299 85.9219 74.3461C93.5135 68.5752 95.5962 55.3984 93.7361 46.5017C93.2852 43.8711 91.8972 41.4969 89.8329 39.8251C84.499 35.8977 76.5417 38.5187 70.548 38.6549C68.3222 38.703 66.0566 38.7591 63.7831 38.7671Z" fill="#DBE6F6"/>
<path d="M11.0986 0.609375C11.4169 0.609375 11.6835 0.8709 11.6836 1.2041C11.6836 1.53741 11.417 1.79883 11.0986 1.79883C10.7803 1.79877 10.5137 1.53737 10.5137 1.2041C10.5138 0.870938 10.7804 0.609434 11.0986 0.609375Z" fill="#CFCFCF" stroke="#BABABA" stroke-width="1.21882"/>
<path d="M23.7412 12.1791C24.0595 12.1791 24.3261 12.4406 24.3262 12.7738C24.3262 13.1071 24.0596 13.3686 23.7412 13.3686C23.4229 13.3685 23.1562 13.1071 23.1562 12.7738C23.1564 12.4407 23.423 12.1792 23.7412 12.1791Z" fill="#CFCFCF" stroke="#BABABA" stroke-width="1.21882"/>
<path d="M5.40137 58.2867C5.71967 58.2867 5.98621 58.5482 5.98633 58.8814C5.98633 59.2147 5.71975 59.4762 5.40137 59.4762C5.08304 59.4761 4.81641 59.2147 4.81641 58.8814C4.81653 58.5483 5.08311 58.2868 5.40137 58.2867Z" fill="#CFCFCF" stroke="#BABABA" stroke-width="1.21882"/>
<path d="M9.06152 77.9424C9.39807 77.9424 9.67087 78.2173 9.6709 78.5566V80.583H11.6836L11.7471 80.5859C12.0539 80.6177 12.2928 80.8795 12.293 81.1972C12.293 81.5366 12.0202 81.8115 11.6836 81.8115H9.6709V83.8408C9.6709 84.1801 9.39809 84.455 9.06152 84.455C8.72496 84.455 8.45215 84.1801 8.45215 83.8408V81.8115H6.44336C6.10679 81.8115 5.83398 81.5366 5.83398 81.1972C5.83417 80.858 6.10691 80.583 6.44336 80.583H8.45215V78.5566C8.45218 78.2173 8.72497 77.9424 9.06152 77.9424ZM82.5752 16.8984C82.9115 16.8987 83.1836 17.1745 83.1836 17.5136V19.54H85.1973L85.2598 19.5429C85.5669 19.5746 85.8066 19.8362 85.8066 20.1543C85.8066 20.4935 85.5337 20.7684 85.1973 20.7685H83.1836V22.7978C83.1834 23.1368 82.9114 23.4118 82.5752 23.4121C82.2388 23.4121 81.966 23.137 81.9658 22.7978V20.7685H79.9561C79.6196 20.7684 79.3467 20.4935 79.3467 20.1543C79.3467 19.815 79.6196 19.5401 79.9561 19.54H81.9658V17.5136C81.9658 17.1743 82.2386 16.8984 82.5752 16.8984ZM44.3945 7.68161C44.7311 7.68161 45.0039 7.95651 45.0039 8.29587V10.3222H47.0176L47.0801 10.3252C47.3871 10.3568 47.6268 10.6186 47.627 10.9365C47.627 11.2757 47.354 11.5505 47.0176 11.5508H45.0039V13.58C45.0039 13.9194 44.7311 14.1943 44.3945 14.1943C44.0581 14.1942 43.7852 13.9193 43.7852 13.58V11.5508H41.7764C41.4398 11.5508 41.167 11.2758 41.167 10.9365C41.1671 10.5973 41.4399 10.3222 41.7764 10.3222H43.7852V8.29587C43.7852 7.9566 44.0581 7.68175 44.3945 7.68161Z" fill="#BABABA"/>
<path fill-rule="evenodd" clip-rule="evenodd" d="M53.4298 81.1988H22.7337C20.5732 81.1988 18.8047 79.4104 18.8047 77.2246V33.0883C18.8047 30.9025 20.5732 29.115 22.7337 29.115H53.4298C55.5912 29.115 57.3597 30.9025 57.3597 33.0883V77.2246C57.3597 79.4104 55.5912 81.1988 53.4298 81.1988" fill="#E8EBF2"/>
<path fill-rule="evenodd" clip-rule="evenodd" d="M50.8803 83.4982H20.1208C17.9558 83.4982 16.1836 81.7172 16.1836 79.5405V35.5869C16.1836 33.4102 17.9558 31.6301 20.1208 31.6301H50.8803C53.0461 31.6301 54.8183 33.4102 54.8183 35.5869V79.5405C54.8183 81.7172 53.0461 83.4982 50.8803 83.4982" fill="#D8DBEA"/>
<path fill-rule="evenodd" clip-rule="evenodd" d="M50.8803 83.4982H20.1208C17.9558 83.4982 16.1836 81.7172 16.1836 79.5405V35.5869C16.1836 33.4102 17.9558 31.6301 20.1208 31.6301H50.8803C53.0461 31.6301 54.8183 33.4102 54.8183 35.5869V79.5405C54.8183 81.7172 53.0461 83.4982 50.8803 83.4982" fill="white"/>
<path fill-rule="evenodd" clip-rule="evenodd" d="M46.4464 45.0214H23.7268C23.078 45.0214 22.5469 44.512 22.5469 43.8896C22.5469 43.2664 23.078 42.7569 23.7268 42.7569H46.4464C47.0953 42.7569 47.6264 43.2664 47.6264 43.8896C47.6264 44.512 47.0953 45.0214 46.4464 45.0214" fill="#EBEBEB"/>
<path fill-rule="evenodd" clip-rule="evenodd" d="M46.4464 51.815H23.7268C23.078 51.815 22.5469 51.3055 22.5469 50.6831C22.5469 50.0599 23.078 49.5504 23.7268 49.5504H46.4464C47.0953 49.5504 47.6264 50.0599 47.6264 50.6831C47.6264 51.3055 47.0953 51.815 46.4464 51.815" fill="#EBEBEB"/>
<path fill-rule="evenodd" clip-rule="evenodd" d="M46.4464 58.6085H23.7268C23.078 58.6085 22.5469 58.099 22.5469 57.4766C22.5469 56.8543 23.078 56.344 23.7268 56.344H46.4464C47.0953 56.344 47.6264 56.8543 47.6264 57.4766C47.6264 58.099 47.0953 58.6085 46.4464 58.6085" fill="#EBEBEB"/>
<path fill-rule="evenodd" clip-rule="evenodd" d="M46.4464 65.402H23.7268C23.078 65.402 22.5469 64.8926 22.5469 64.2702C22.5469 63.647 23.078 63.1375 23.7268 63.1375H46.4464C47.0953 63.1375 47.6264 63.647 47.6264 64.2702C47.6264 64.8926 47.0953 65.402 46.4464 65.402" fill="#EBEBEB"/>
<path fill-rule="evenodd" clip-rule="evenodd" d="M35.5861 72.1956H23.7319C23.0802 72.1956 22.5469 71.6861 22.5469 71.0637C22.5469 70.4405 23.0802 69.9311 23.7319 69.9311H35.5861C36.2377 69.9311 36.7711 70.4405 36.7711 71.0637C36.7711 71.6861 36.2377 72.1956 35.5861 72.1956" fill="#EBEBEB"/>
<path fill-rule="evenodd" clip-rule="evenodd" d="M59.5081 63.4156C54.9651 67.9954 47.932 68.5121 42.826 64.9761C42.1734 64.5161 41.5523 63.9995 40.9731 63.4156C40.675 63.116 40.3939 62.8068 40.1291 62.4812C39.5995 61.8311 39.1355 61.1377 38.7554 60.4213C38.0857 59.2113 37.6304 57.9273 37.3818 56.6001C36.5797 52.438 37.779 47.9581 40.9731 44.739C44.1749 41.5104 48.6188 40.309 52.7474 41.1099C54.063 41.3682 55.3376 41.8273 56.5379 42.4947C57.2495 42.8865 57.9278 43.3542 58.5736 43.8882C58.8956 44.1542 59.2024 44.4384 59.4996 44.739C60.0797 45.3229 60.5998 45.9481 61.0476 46.6069C64.556 51.7533 64.0426 58.8444 59.5081 63.4156" fill="white" fill-opacity="0.1"/>
<path fill-rule="evenodd" clip-rule="evenodd" d="M58.2372 62.5135C53.5108 67.2799 45.8513 67.279 41.1241 62.5135C36.4029 57.7533 36.4029 50.0295 41.1302 45.264C45.8513 40.5038 53.5108 40.5038 58.2319 45.264C62.9583 50.0295 62.9583 57.7533 58.2372 62.5135M60.663 42.8156C54.5962 36.6987 44.7653 36.6987 38.6985 42.8156C32.6327 48.9317 32.6274 58.8502 38.6932 64.9672C44.2147 70.5326 52.8689 71.0345 58.9559 66.4649C59.5504 66.018 60.123 65.517 60.6691 64.9672C61.2144 64.4165 61.7113 63.8392 62.1537 63.2398C66.6857 57.1015 66.1835 48.3819 60.663 42.8156Z" fill="#BABABA"/>
<path fill-rule="evenodd" clip-rule="evenodd" d="M84.5411 88.0251L84.2864 88.2819C82.6014 89.9818 79.8421 89.9818 78.1562 88.2819L62.5977 72.5946L68.9826 66.1569L84.5411 81.8442C86.227 83.544 86.227 86.3253 84.5411 88.0251Z" fill="#C9D5E7"/>
<path fill-rule="evenodd" clip-rule="evenodd" d="M62.4877 62.7601L67.0853 67.3958L63.8213 70.6859L59.2246 66.0503C59.8313 65.5942 60.4146 65.0829 60.9728 64.5219C61.5293 63.9609 62.0363 63.3718 62.4877 62.7601" fill="#BABABA"/>
<path fill-rule="evenodd" clip-rule="evenodd" d="M84.3067 81.6512L77.9625 88.0471L76.8203 86.8946L83.1637 80.4987L84.3067 81.6512Z" fill="white"/>
<path fill-rule="evenodd" clip-rule="evenodd" d="M69.3321 66.3783L62.8141 72.9504L61.8457 71.9741L68.3637 65.402L69.3321 66.3783Z" fill="white"/>
<path d="M50.9952 100C70.6396 100 86.5646 98.9983 86.5646 97.7628C86.5646 96.5272 70.6396 95.5255 50.9952 95.5255C31.3507 95.5255 15.4258 96.5272 15.4258 97.7628C15.4258 98.9983 31.3507 100 50.9952 100Z" fill="#E1E9F5"/>
</svg>
