<svg width="87" height="42" viewBox="0 0 87 42" fill="none" xmlns="http://www.w3.org/2000/svg">
<rect width="87" height="42" rx="8" fill="#4278F9"/>
<path d="M28.6668 20.3334H24.6668V16.3334H23.3335V20.3334H19.3335V21.6667H23.3335V25.6667H24.6668V21.6667H28.6668V20.3334Z" fill="white"/>
<path d="M41.8864 27H40.4091L44.6818 15.3636H46.1364L50.4091 27H48.9318L45.4545 17.2045H45.3636L41.8864 27ZM42.4318 22.4545H48.3864V23.7045H42.4318V22.4545ZM55.3352 27.1818C54.608 27.1818 53.9659 26.9981 53.4091 26.6307C52.8523 26.2595 52.4167 25.7367 52.1023 25.0625C51.7879 24.3845 51.6307 23.5833 51.6307 22.6591C51.6307 21.7424 51.7879 20.947 52.1023 20.2727C52.4167 19.5985 52.8542 19.0777 53.4148 18.7102C53.9754 18.3428 54.6231 18.1591 55.358 18.1591C55.9261 18.1591 56.375 18.2538 56.7045 18.4432C57.0379 18.6288 57.2917 18.8409 57.4659 19.0795C57.6439 19.3144 57.7822 19.5076 57.8807 19.6591H57.9943V15.3636H59.3352V27H58.0398V25.6591H57.8807C57.7822 25.8182 57.642 26.0189 57.4602 26.2614C57.2784 26.5 57.0189 26.714 56.6818 26.9034C56.3447 27.089 55.8958 27.1818 55.3352 27.1818ZM55.517 25.9773C56.0549 25.9773 56.5095 25.8371 56.8807 25.5568C57.2519 25.2727 57.5341 24.8807 57.7273 24.3807C57.9205 23.8769 58.017 23.2955 58.017 22.6364C58.017 21.9848 57.9223 21.4148 57.733 20.9261C57.5436 20.4337 57.2633 20.0511 56.892 19.7784C56.5208 19.5019 56.0625 19.3636 55.517 19.3636C54.9489 19.3636 54.4754 19.5095 54.0966 19.8011C53.7216 20.089 53.4394 20.4811 53.25 20.9773C53.0644 21.4697 52.9716 22.0227 52.9716 22.6364C52.9716 23.2576 53.0663 23.822 53.2557 24.3295C53.4489 24.8333 53.733 25.2348 54.108 25.5341C54.4867 25.8295 54.9564 25.9773 55.517 25.9773ZM65.2727 27.1818C64.5455 27.1818 63.9034 26.9981 63.3466 26.6307C62.7898 26.2595 62.3542 25.7367 62.0398 25.0625C61.7254 24.3845 61.5682 23.5833 61.5682 22.6591C61.5682 21.7424 61.7254 20.947 62.0398 20.2727C62.3542 19.5985 62.7917 19.0777 63.3523 18.7102C63.9129 18.3428 64.5606 18.1591 65.2955 18.1591C65.8636 18.1591 66.3125 18.2538 66.642 18.4432C66.9754 18.6288 67.2292 18.8409 67.4034 19.0795C67.5814 19.3144 67.7197 19.5076 67.8182 19.6591H67.9318V15.3636H69.2727V27H67.9773V25.6591H67.8182C67.7197 25.8182 67.5795 26.0189 67.3977 26.2614C67.2159 26.5 66.9564 26.714 66.6193 26.9034C66.2822 27.089 65.8333 27.1818 65.2727 27.1818ZM65.4545 25.9773C65.9924 25.9773 66.447 25.8371 66.8182 25.5568C67.1894 25.2727 67.4716 24.8807 67.6648 24.3807C67.858 23.8769 67.9545 23.2955 67.9545 22.6364C67.9545 21.9848 67.8598 21.4148 67.6705 20.9261C67.4811 20.4337 67.2008 20.0511 66.8295 19.7784C66.4583 19.5019 66 19.3636 65.4545 19.3636C64.8864 19.3636 64.4129 19.5095 64.0341 19.8011C63.6591 20.089 63.3769 20.4811 63.1875 20.9773C63.0019 21.4697 62.9091 22.0227 62.9091 22.6364C62.9091 23.2576 63.0038 23.822 63.1932 24.3295C63.3864 24.8333 63.6705 25.2348 64.0455 25.5341C64.4242 25.8295 64.8939 25.9773 65.4545 25.9773Z" fill="white"/>
</svg>
