<svg width="16" height="16" viewBox="0 0 16 16" fill="none" xmlns="http://www.w3.org/2000/svg">
<path fill-rule="evenodd" clip-rule="evenodd" d="M8.00019 0.833496C5.14672 0.833496 2.83352 3.14669 2.83352 6.00016V6.46957C2.83352 6.93418 2.696 7.3884 2.43827 7.77498L1.67254 8.92358C0.783808 10.2567 1.46228 12.0687 3.00801 12.4903C3.51175 12.6276 4.01974 12.7438 4.53068 12.8389L4.53195 12.8423C5.04461 14.2102 6.41482 15.1668 8.00015 15.1668C9.58548 15.1668 10.9557 14.2102 11.4683 12.8423L11.4696 12.8389C11.9806 12.7439 12.4886 12.6276 12.9924 12.4903C14.5381 12.0687 15.2166 10.2567 14.3278 8.92358L13.5621 7.77498C13.3044 7.3884 13.1669 6.93418 13.1669 6.46957V6.00016C13.1669 3.14669 10.8537 0.833496 8.00019 0.833496ZM10.2511 13.0248C8.75583 13.2035 7.24446 13.2035 5.74916 13.0248C6.22313 13.7058 7.04751 14.1668 8.00015 14.1668C8.95278 14.1668 9.77716 13.7058 10.2511 13.0248ZM3.83352 6.00016C3.83352 3.69898 5.699 1.8335 8.00019 1.8335C10.3014 1.8335 12.1669 3.69898 12.1669 6.00016V6.46957C12.1669 7.1316 12.3628 7.77883 12.7301 8.32968L13.4958 9.47828C14.0059 10.2435 13.6165 11.2835 12.7293 11.5255C9.63309 12.3699 6.36729 12.3699 3.27112 11.5255C2.3839 11.2835 1.99447 10.2435 2.50459 9.47828L3.27032 8.32968C3.63756 7.77883 3.83352 7.1316 3.83352 6.46957V6.00016Z" fill="white"/>
</svg>
