<svg width="32" height="32" viewBox="0 0 32 32" fill="none" xmlns="http://www.w3.org/2000/svg">
<rect width="32" height="32" rx="8" fill="#EFEFEF"/>
<path fill-rule="evenodd" clip-rule="evenodd" d="M12.9524 12.0623H19.0477C19.5239 12.0623 19.908 12.0623 20.219 12.0878C20.5392 12.1141 20.8204 12.1696 21.0804 12.3028C21.4889 12.5119 21.8213 12.8443 22.0305 13.2528C22.1636 13.5128 22.2191 13.794 22.2454 14.1142C22.2709 14.4252 22.2709 14.8093 22.2709 15.2855V15.3043C22.2709 15.321 22.2709 15.3378 22.271 15.3547C22.2715 15.5519 22.2721 15.7619 22.196 15.9496C22.1306 16.1108 22.0251 16.2526 21.8895 16.3616C21.8276 16.4113 21.7591 16.4507 21.6873 16.4836C21.6855 17.4241 21.6735 18.3744 21.5891 19.1886C21.5396 19.6665 21.4635 20.1151 21.3429 20.4977C21.2243 20.874 21.0491 21.2303 20.7718 21.4767C20.2915 21.9037 19.687 22.092 18.9323 22.1822C18.1915 22.2707 17.242 22.2707 16.0299 22.2707H15.9702C14.758 22.2707 13.8086 22.2707 13.0678 22.1822C12.3131 22.092 11.7086 21.9037 11.2282 21.4767C10.9509 21.2303 10.7758 20.874 10.6571 20.4977C10.5365 20.1151 10.4605 19.6665 10.411 19.1886C10.3266 18.3744 10.3145 17.4241 10.3128 16.4836C10.241 16.4507 10.1725 16.4113 10.1106 16.3616C9.97501 16.2526 9.8695 16.1108 9.80409 15.9496C9.72793 15.7619 9.72853 15.5519 9.7291 15.3547C9.72915 15.3378 9.7292 15.321 9.7292 15.3043L9.7292 15.2855C9.7292 14.8093 9.72919 14.4252 9.75471 14.1142C9.78098 13.794 9.83649 13.5128 9.96962 13.2528C10.1788 12.8443 10.5112 12.5119 10.9197 12.3028C11.1797 12.1696 11.4609 12.1141 11.7811 12.0878C12.0921 12.0623 12.4762 12.0623 12.9524 12.0623ZM11.1888 16.7632C11.1927 17.6014 11.2096 18.4066 11.2813 19.0984C11.3279 19.5476 11.396 19.9312 11.4916 20.2346C11.5893 20.5442 11.7024 20.7275 11.8095 20.8228C12.098 21.0792 12.4966 21.2327 13.1716 21.3133C13.8544 21.3949 14.7516 21.3957 16 21.3957C17.2485 21.3957 18.1457 21.3949 18.8285 21.3133C19.5034 21.2327 19.902 21.0792 20.1905 20.8228C20.2977 20.7275 20.4108 20.5442 20.5084 20.2346C20.6041 19.9312 20.6722 19.5476 20.7188 19.0984C20.7905 18.4066 20.8073 17.6014 20.8113 16.7632L17.8959 17.6379V17.844C17.8959 18.1422 17.7143 18.4103 17.4375 18.5211L17.0291 18.6844C16.3685 18.9487 15.6316 18.9487 14.971 18.6844L14.5626 18.5211C14.2857 18.4103 14.1042 18.1422 14.1042 17.844V17.6379L11.1888 16.7632ZM14.1042 16.7243L10.9586 15.7806C10.833 15.743 10.7603 15.7209 10.7071 15.7007C10.6745 15.6884 10.6615 15.6811 10.6581 15.679C10.6392 15.6637 10.6245 15.6439 10.6152 15.6214C10.6141 15.6175 10.6109 15.603 10.6085 15.5682C10.6045 15.5114 10.6042 15.4355 10.6042 15.3043C10.6042 14.8049 10.6045 14.4568 10.6268 14.1858C10.6486 13.9199 10.6892 13.7673 10.7485 13.6516C10.874 13.4065 11.0734 13.2071 11.3185 13.0816C11.4341 13.0224 11.5868 12.9817 11.8526 12.9599C12.1236 12.9377 12.4718 12.9373 12.9712 12.9373H19.0289C19.5283 12.9373 19.8764 12.9377 20.1474 12.9599C20.4133 12.9817 20.566 13.0224 20.6816 13.0816C20.9267 13.2071 21.1261 13.4065 21.2516 13.6516C21.3108 13.7673 21.3515 13.9199 21.3733 14.1858C21.3955 14.4568 21.3959 14.8049 21.3959 15.3043C21.3959 15.4355 21.3956 15.5114 21.3916 15.5682C21.3891 15.603 21.3859 15.6175 21.3849 15.6214C21.3756 15.6439 21.3609 15.6637 21.342 15.679C21.3386 15.6811 21.3256 15.6884 21.293 15.7007C21.2397 15.7209 21.1671 15.743 21.0415 15.7806L17.8959 16.7243V16.5832C17.8959 16.1805 17.5694 15.854 17.1667 15.854H14.8334C14.4307 15.854 14.1042 16.1805 14.1042 16.5832V16.7243ZM21.3429 15.6784L21.342 15.679ZM21.3845 15.6225L21.3849 15.6214ZM10.6155 15.6225L10.6152 15.6214ZM10.6571 15.6784L10.6581 15.679ZM14.9792 16.729V17.7453L15.2959 17.872C15.7479 18.0528 16.2521 18.0528 16.7041 17.872L17.0209 17.7453V16.729H14.9792Z" fill="#1C274D"/>
<path fill-rule="evenodd" clip-rule="evenodd" d="M16.0001 10.604C15.4294 10.604 14.9426 10.9686 14.7622 11.479C14.6817 11.7068 14.4317 11.8262 14.2039 11.7457C13.9761 11.6651 13.8567 11.4152 13.9372 11.1874C14.2373 10.3383 15.047 9.729 16.0001 9.729C16.9533 9.729 17.763 10.3383 18.0631 11.1874C18.1436 11.4152 18.0242 11.6651 17.7964 11.7457C17.5686 11.8262 17.3186 11.7068 17.2381 11.479C17.0577 10.9686 16.5709 10.604 16.0001 10.604Z" fill="#1C274D"/>
</svg>
