<svg width="40" height="40" viewBox="0 0 40 40" fill="none" xmlns="http://www.w3.org/2000/svg">
<rect width="40" height="40" rx="8" fill="#F6F6F6"/>
<g clip-path="url(#clip0_19927_10702)">
<path fill-rule="evenodd" clip-rule="evenodd" d="M21.966 12.8337H23.3686C23.9676 12.8337 24.4671 12.8337 24.8636 12.887C25.2822 12.9433 25.66 13.0671 25.9637 13.3707C26.2673 13.6744 26.3911 14.0522 26.4474 14.4708C26.5007 14.8673 26.5007 15.3668 26.5007 15.9657V26.1671H26.6673C26.9435 26.1671 27.1673 26.3909 27.1673 26.6671C27.1673 26.9432 26.9435 27.1671 26.6673 27.1671H13.334C13.0578 27.1671 12.834 26.9432 12.834 26.6671C12.834 26.3909 13.0578 26.1671 13.334 26.1671H13.5007L13.5007 17.9657C13.5006 17.3668 13.5006 16.8673 13.5539 16.4708C13.6102 16.0522 13.734 15.6744 14.0376 15.3707C14.3413 15.0671 14.7191 14.9433 15.1377 14.887C15.5342 14.8337 16.0337 14.8337 16.6326 14.8337L18.8526 14.8337C18.8869 14.251 18.9944 13.7473 19.371 13.3707C19.6746 13.0671 20.0525 12.9433 20.471 12.887C20.8675 12.8337 21.367 12.8337 21.966 12.8337ZM19.3385 15.8337C19.3377 15.8337 19.3368 15.8337 19.336 15.8337C19.3353 15.8337 19.3346 15.8337 19.334 15.8337H16.6673C16.0246 15.8337 15.5929 15.8348 15.2709 15.8781C14.9633 15.9195 14.8316 15.9909 14.7447 16.0778C14.6579 16.1647 14.5864 16.2964 14.545 16.604C14.5017 16.926 14.5007 17.3577 14.5007 18.0004V26.1671H17.5007V24.6671C17.5007 24.3909 17.7245 24.1671 18.0007 24.1671C18.2768 24.1671 18.5007 24.3909 18.5007 24.6671V26.1671H21.5007V18.0004C21.5007 17.3577 21.4996 16.926 21.4563 16.604C21.4149 16.2964 21.3435 16.1647 21.2566 16.0778C21.1697 15.9909 21.038 15.9195 20.7304 15.8781C20.4091 15.8349 19.9787 15.8337 19.3385 15.8337ZM22.5007 26.1671L22.5007 17.9657C22.5007 17.3668 22.5007 16.8673 22.4474 16.4708C22.3911 16.0522 22.2673 15.6744 21.9637 15.3707C21.66 15.0671 21.2822 14.9433 20.8636 14.887C20.5801 14.8489 20.2438 14.838 19.8562 14.835C19.8897 14.3685 19.9631 14.1928 20.0781 14.0778C20.1649 13.9909 20.2966 13.9195 20.6042 13.8781C20.9263 13.8348 21.358 13.8337 22.0007 13.8337H23.334C23.9767 13.8337 24.4084 13.8348 24.7304 13.8781C25.038 13.9195 25.1697 13.9909 25.2566 14.0778C25.3435 14.1647 25.4149 14.2964 25.4563 14.604C25.4996 14.926 25.5007 15.3577 25.5007 16.0004V26.1671H22.5007ZM15.5007 17.3337C15.5007 17.0576 15.7245 16.8337 16.0007 16.8337H20.0007C20.2768 16.8337 20.5007 17.0576 20.5007 17.3337C20.5007 17.6099 20.2768 17.8337 20.0007 17.8337H16.0007C15.7245 17.8337 15.5007 17.6099 15.5007 17.3337ZM15.5007 19.3337C15.5007 19.0576 15.7245 18.8337 16.0007 18.8337H20.0007C20.2768 18.8337 20.5007 19.0576 20.5007 19.3337C20.5007 19.6099 20.2768 19.8337 20.0007 19.8337H16.0007C15.7245 19.8337 15.5007 19.6099 15.5007 19.3337ZM15.5007 21.3337C15.5007 21.0576 15.7245 20.8337 16.0007 20.8337H20.0007C20.2768 20.8337 20.5007 21.0576 20.5007 21.3337C20.5007 21.6099 20.2768 21.8337 20.0007 21.8337H16.0007C15.7245 21.8337 15.5007 21.6099 15.5007 21.3337Z" fill="#333333"/>
</g>
<defs>
<clipPath id="clip0_19927_10702">
<rect width="16" height="16" fill="white" transform="translate(12 12)"/>
</clipPath>
</defs>
</svg>
