<svg width="11" height="12" viewBox="0 0 11 12" fill="none" xmlns="http://www.w3.org/2000/svg">
<path d="M7.97461 6.84766C8.25075 6.84766 8.47461 6.6238 8.47461 6.34766C8.47461 6.07151 8.25075 5.84766 7.97461 5.84766C7.69847 5.84766 7.47461 6.07151 7.47461 6.34766C7.47461 6.6238 7.69847 6.84766 7.97461 6.84766Z" fill="#333333"/>
<path d="M7.97461 8.84766C8.25075 8.84766 8.47461 8.6238 8.47461 8.34766C8.47461 8.07151 8.25075 7.84766 7.97461 7.84766C7.69847 7.84766 7.47461 8.07151 7.47461 8.34766C7.47461 8.6238 7.69847 8.84766 7.97461 8.84766Z" fill="#333333"/>
<path d="M5.97461 6.34766C5.97461 6.6238 5.75075 6.84766 5.47461 6.84766C5.19847 6.84766 4.97461 6.6238 4.97461 6.34766C4.97461 6.07151 5.19847 5.84766 5.47461 5.84766C5.75075 5.84766 5.97461 6.07151 5.97461 6.34766Z" fill="#333333"/>
<path d="M5.97461 8.34766C5.97461 8.6238 5.75075 8.84766 5.47461 8.84766C5.19847 8.84766 4.97461 8.6238 4.97461 8.34766C4.97461 8.07151 5.19847 7.84766 5.47461 7.84766C5.75075 7.84766 5.97461 8.07151 5.97461 8.34766Z" fill="#333333"/>
<path d="M2.97461 6.84766C3.25075 6.84766 3.47461 6.6238 3.47461 6.34766C3.47461 6.07151 3.25075 5.84766 2.97461 5.84766C2.69847 5.84766 2.47461 6.07151 2.47461 6.34766C2.47461 6.6238 2.69847 6.84766 2.97461 6.84766Z" fill="#333333"/>
<path d="M2.97461 8.84766C3.25075 8.84766 3.47461 8.6238 3.47461 8.34766C3.47461 8.07151 3.25075 7.84766 2.97461 7.84766C2.69847 7.84766 2.47461 8.07151 2.47461 8.34766C2.47461 8.6238 2.69847 8.84766 2.97461 8.84766Z" fill="#333333"/>
<path fill-rule="evenodd" clip-rule="evenodd" d="M2.97461 0.722656C3.18172 0.722656 3.34961 0.890549 3.34961 1.09766V1.47902C3.68061 1.47265 4.04527 1.47265 4.44634 1.47266H6.50282C6.90389 1.47265 7.26861 1.47265 7.59961 1.47902V1.09766C7.59961 0.890549 7.7675 0.722656 7.97461 0.722656C8.18172 0.722656 8.34961 0.890549 8.34961 1.09766V1.5112C8.47958 1.52111 8.60266 1.53357 8.71912 1.54922C9.30533 1.62804 9.77981 1.7941 10.154 2.16828C10.5282 2.54246 10.6942 3.01693 10.773 3.60314C10.8496 4.17275 10.8496 4.90056 10.8496 5.81943V6.87586C10.8496 7.79473 10.8496 8.52256 10.773 9.09217C10.6942 9.67838 10.5282 10.1529 10.154 10.527C9.77981 10.9012 9.30533 11.0673 8.71912 11.1461C8.14952 11.2227 7.42171 11.2227 6.50284 11.2227H4.4464C3.52753 11.2227 2.7997 11.2227 2.2301 11.1461C1.64389 11.0673 1.16941 10.9012 0.795231 10.527C0.42105 10.1529 0.254991 9.67838 0.176177 9.09217C0.0995955 8.52256 0.0996017 7.79474 0.0996095 6.87586V5.81945C0.0996017 4.90057 0.0995955 4.17275 0.176177 3.60314C0.254991 3.01693 0.42105 2.54246 0.795231 2.16828C1.16941 1.7941 1.64389 1.62804 2.2301 1.54922C2.34656 1.53357 2.46964 1.52111 2.59961 1.5112V1.09766C2.59961 0.890549 2.7675 0.722656 2.97461 0.722656ZM2.33003 2.29254C1.82699 2.36017 1.53717 2.487 1.32556 2.69861C1.11396 2.91021 0.987122 3.20004 0.919489 3.70308C0.908035 3.78827 0.898458 3.87796 0.890451 3.97266H10.0588C10.0508 3.87796 10.0412 3.78827 10.0297 3.70308C9.9621 3.20004 9.83526 2.91021 9.62366 2.69861C9.41205 2.487 9.12223 2.36017 8.61918 2.29254C8.10535 2.22345 7.42802 2.22266 6.47461 2.22266H4.47461C3.5212 2.22266 2.84387 2.22345 2.33003 2.29254ZM0.84961 5.84766C0.84961 5.42065 0.849769 5.04902 0.856152 4.72266H10.0931C10.0994 5.04902 10.0996 5.42065 10.0996 5.84766V6.84766C10.0996 7.80107 10.0988 8.4784 10.0297 8.99223C9.9621 9.49528 9.83526 9.7851 9.62366 9.9967C9.41205 10.2083 9.12223 10.3351 8.61918 10.4028C8.10535 10.4719 7.42802 10.4727 6.47461 10.4727H4.47461C3.5212 10.4727 2.84387 10.4719 2.33003 10.4028C1.82699 10.3351 1.53717 10.2083 1.32556 9.9967C1.11396 9.7851 0.987122 9.49528 0.919489 8.99223C0.850406 8.4784 0.84961 7.80107 0.84961 6.84766V5.84766Z" fill="#333333"/>
</svg>
