<svg width="21" height="21" viewBox="0 0 21 21" fill="none" xmlns="http://www.w3.org/2000/svg">
<path d="M8.95642 12.1829C8.6275 11.8357 8.07931 11.8174 7.73212 12.1463C7.38493 12.4752 7.36666 13.0234 7.69557 13.3706L8.04276 13.7361H5.47539C5.00029 13.7361 4.60742 14.129 4.60742 14.6041C4.60742 15.0792 5.00029 15.472 5.47539 15.472H8.04276L7.69557 15.8375C7.36666 16.1847 7.38493 16.7329 7.73212 17.0618C8.07931 17.3907 8.6275 17.3724 8.95642 17.0252L10.6741 15.1979C10.9847 14.8599 10.9847 14.3482 10.6741 14.0102L8.95642 12.1829Z" fill="white"/>
<path d="M20.5605 8.91213C20.1676 8.02589 19.4276 7.36806 18.3586 6.40872C18.322 6.37217 18.2855 6.34476 18.2489 6.30822L14.6309 3.05561C14.6309 3.05561 14.5669 3.00079 14.5304 2.96424C13.5984 2.13282 12.968 1.55722 12.1823 1.25571C11.3874 0.945068 10.5377 0.945068 9.286 0.945068H9.10327C7.41301 0.945068 6.0608 0.945068 5.00096 1.08212C3.90458 1.2283 2.99092 1.53894 2.26913 2.26073C1.54735 2.98252 1.23671 3.90531 1.08138 4.99256C0.944336 6.05239 0.944336 7.39547 0.944336 9.06745V12.8226C0.944336 14.5037 0.944336 15.8468 1.08138 16.9066C1.22757 17.9939 1.53821 18.9075 2.26 19.6293C2.98178 20.3511 3.89544 20.6617 4.98269 20.8079C6.04253 20.9541 7.3856 20.945 9.05758 20.945H12.8127C14.4847 20.945 15.8278 20.945 16.8876 20.8079C17.9748 20.6617 18.8885 20.3511 19.6103 19.6293C20.3321 18.9075 20.6427 17.9939 20.7889 16.9066C20.9351 15.8468 20.926 14.5037 20.926 12.8317V12.2287C20.926 10.7851 20.926 9.79838 20.5331 8.91213H20.5605ZM12.7305 3.67689C12.9406 3.85962 13.169 4.06063 13.4705 4.33472L17.0886 7.58733C17.381 7.84316 17.6094 8.06243 17.8195 8.2543H16.4399C15.3344 8.2543 14.6035 8.2543 14.0461 8.18121C13.5162 8.10812 13.2969 7.98934 13.1508 7.84316C13.0046 7.69697 12.8858 7.47769 12.8127 6.94778C12.7396 6.39958 12.7396 5.65952 12.7396 4.554V3.67689H12.7305ZM19.2174 12.7769C19.2174 14.522 19.2174 15.7463 19.0895 16.6691C18.9707 17.5644 18.7423 18.0487 18.3951 18.3959C18.0479 18.743 17.5637 18.9623 16.6683 19.0902C15.7455 19.2181 14.5212 19.2181 12.7762 19.2181H9.12154C7.37646 19.2181 6.15216 19.2181 5.22937 19.0902C4.33399 18.9715 3.84976 18.743 3.50257 18.3959C3.15538 18.0487 2.9361 17.5644 2.80819 16.6691C2.68028 15.7463 2.68028 14.522 2.68028 12.7769V9.12227C2.68028 7.37719 2.68028 6.1529 2.80819 5.23011C2.92697 4.33472 3.15538 3.85049 3.50257 3.5033C3.84976 3.15611 4.33399 2.93683 5.23851 2.80892C6.17044 2.68101 7.39473 2.68101 9.15809 2.68101C10.0809 2.68101 10.6108 2.68101 11.0037 2.73583V4.59968C11.0037 5.63211 11.0037 6.49095 11.095 7.17619C11.1955 7.89798 11.4057 8.54667 11.9265 9.06745C12.4472 9.58824 13.0959 9.79838 13.8177 9.89888C14.503 9.99024 15.3618 9.99024 16.3942 9.99024H19.1078C19.2174 10.4471 19.2266 11.0866 19.2266 12.3749V12.7769H19.2174Z" fill="white"/>
</svg>
