<svg width="15" height="16" viewBox="0 0 15 16" fill="none" xmlns="http://www.w3.org/2000/svg">
<path fill-rule="evenodd" clip-rule="evenodd" d="M8.0013 1.89013C7.69437 1.83797 7.27595 1.83402 6.52116 1.83402C5.24338 1.83402 4.33513 1.83507 3.64654 1.92723C2.97194 2.01752 2.58432 2.18687 2.30257 2.46862C2.02043 2.75076 1.85132 3.13719 1.76114 3.80792C1.66903 4.49303 1.66797 5.39614 1.66797 6.66735V9.33402C1.66797 10.6052 1.66903 11.5083 1.76114 12.1935C1.85132 12.8642 2.02043 13.2506 2.30257 13.5327C2.58471 13.8149 2.97114 13.984 3.64187 14.0742C4.32698 14.1663 5.23009 14.1674 6.5013 14.1674H9.16797C10.4392 14.1674 11.3423 14.1663 12.0274 14.0742C12.6981 13.984 13.0846 13.8149 13.3667 13.5327C13.6488 13.2506 13.818 12.8642 13.9081 12.1935C14.0002 11.5083 14.0013 10.6052 14.0013 9.33402V9.04262C14.0013 8.01861 13.9941 7.53318 13.8854 7.16735H11.7988C11.0436 7.16737 10.4265 7.16738 9.93923 7.10187C9.42993 7.0334 8.98837 6.88521 8.63591 6.53275C8.28344 6.18029 8.13525 5.73873 8.06678 5.22943C8.00127 4.74219 8.00129 4.12503 8.0013 3.36981V1.89013ZM9.0013 2.40698V3.33402C9.0013 4.13383 9.00237 4.68338 9.05786 5.09618C9.11143 5.49459 9.20732 5.68995 9.34301 5.82564C9.4787 5.96134 9.67406 6.05723 10.0725 6.11079C10.4853 6.16629 11.0348 6.16735 11.8346 6.16735H13.1809C12.9833 5.97565 12.7301 5.74596 12.4013 5.45003L9.76212 3.07476C9.43853 2.78354 9.19769 2.56857 9.0013 2.40698ZM6.61827 0.834001C7.54134 0.833754 8.1377 0.833595 8.68658 1.04422C9.23546 1.25484 9.67674 1.65221 10.3595 2.26702C10.3831 2.28824 10.4069 2.30973 10.4311 2.33147L13.0703 4.70673C13.0984 4.73202 13.1261 4.75698 13.1535 4.78165C13.9426 5.49141 14.4529 5.95037 14.7274 6.56666C15.0019 7.18295 15.0016 7.86926 15.0013 8.9306C15.0013 8.96748 15.0013 9.00482 15.0013 9.04262V9.37162C15.0013 10.5968 15.0013 11.5672 14.8992 12.3267C14.7941 13.1083 14.5727 13.7409 14.0738 14.2399C13.5749 14.7388 12.9423 14.9602 12.1607 15.0653C11.4012 15.1674 10.4308 15.1674 9.20558 15.1674H6.4637C5.23852 15.1674 4.2681 15.1674 3.50862 15.0653C2.72701 14.9602 2.09437 14.7388 1.59546 14.2399C1.09656 13.7409 0.875144 13.1083 0.770059 12.3267C0.66795 11.5672 0.667958 10.5968 0.667969 9.37163V6.62974C0.667958 5.40457 0.66795 4.43414 0.770059 3.67467C0.875144 2.89305 1.09656 2.26042 1.59546 1.76151C2.09476 1.26221 2.72951 1.04105 3.51388 0.936068C4.27652 0.833999 5.25177 0.834008 6.48365 0.834018L6.52116 0.834018C6.55393 0.834018 6.5863 0.83401 6.61827 0.834001Z" fill="#1C274C"/>
<path fill-rule="evenodd" clip-rule="evenodd" d="M6.83348 9.62698C7.03988 9.81044 7.05847 10.1265 6.87501 10.3329L5.09723 12.3329C5.00235 12.4396 4.86634 12.5007 4.72353 12.5007C4.58071 12.5007 4.4447 12.4396 4.34982 12.3329L3.46093 11.3329C3.27747 11.1265 3.29606 10.8104 3.50245 10.627C3.70885 10.4435 4.02488 10.4621 4.20834 10.6685L4.72353 11.2481L6.1276 9.6685C6.31106 9.46211 6.62709 9.44352 6.83348 9.62698Z" fill="#1C274C"/>
</svg>
