<svg width="17" height="17" viewBox="0 0 17 17" fill="none" xmlns="http://www.w3.org/2000/svg">
<path fill-rule="evenodd" clip-rule="evenodd" d="M8.73372 2.36864C8.42679 2.31649 8.00837 2.31253 7.25359 2.31253C5.9758 2.31253 5.06756 2.31359 4.37896 2.40575C3.70437 2.49603 3.31674 2.66539 3.03499 2.94714C2.75285 3.22928 2.58374 3.61571 2.49356 4.28643C2.40145 4.97154 2.40039 5.87465 2.40039 7.14587V9.81253C2.40039 11.0837 2.40145 11.9869 2.49356 12.672C2.58374 13.3427 2.75285 13.7291 3.03499 14.0113C3.31713 14.2934 3.70356 14.4625 4.37429 14.5527C5.0594 14.6448 5.96251 14.6459 7.23372 14.6459H9.90039C11.1716 14.6459 12.0747 14.6448 12.7598 14.5527C13.4306 14.4625 13.817 14.2934 14.0991 14.0113C14.3813 13.7291 14.5504 13.3427 14.6406 12.672C14.7327 11.9869 14.7337 11.0837 14.7337 9.81253V9.52113C14.7337 8.49712 14.7265 8.01169 14.6178 7.64587H12.5313C11.776 7.64588 11.1589 7.6459 10.6716 7.58039C10.1623 7.51191 9.72079 7.36373 9.36833 7.01127C9.01586 6.6588 8.86768 6.21724 8.7992 5.70794C8.73369 5.2207 8.73371 4.60355 8.73372 3.84833V2.36864ZM9.73372 2.8855V3.81253C9.73372 4.61234 9.73479 5.1619 9.79028 5.5747C9.84385 5.97311 9.93974 6.16846 10.0754 6.30416C10.2111 6.43985 10.4065 6.53574 10.8049 6.58931C11.2177 6.6448 11.7672 6.64587 12.5671 6.64587H13.9134C13.7157 6.45417 13.4625 6.22448 13.1337 5.92854L10.4945 3.55328C10.1709 3.26205 9.93011 3.04708 9.73372 2.8855ZM7.3507 1.31252C8.27376 1.31227 8.87012 1.31211 9.419 1.52274C9.96788 1.73336 10.4092 2.13073 11.0919 2.74553C11.1155 2.76676 11.1393 2.78824 11.1635 2.80998L13.8027 5.18525C13.8308 5.21053 13.8585 5.2355 13.886 5.26016C14.6751 5.96992 15.1853 6.42889 15.4598 7.04518C15.7343 7.66147 15.7341 8.34778 15.7337 9.40911C15.7337 9.446 15.7337 9.48333 15.7337 9.52113V9.85014C15.7337 11.0753 15.7337 12.0457 15.6316 12.8052C15.5265 13.5868 15.3051 14.2195 14.8062 14.7184C14.3073 15.2173 13.6747 15.4387 12.8931 15.5438C12.1336 15.6459 11.1632 15.6459 9.938 15.6459H7.19612C5.97094 15.6459 5.00052 15.6459 4.24104 15.5438C3.45943 15.4387 2.82679 15.2173 2.32789 14.7184C1.82898 14.2195 1.60757 13.5868 1.50248 12.8052C1.40037 12.0457 1.40038 11.0753 1.40039 9.85014V7.10825C1.40038 5.88308 1.40037 4.91266 1.50248 4.15318C1.60757 3.37157 1.82898 2.73894 2.32789 2.24003C2.82718 1.74073 3.46194 1.51956 4.2463 1.41458C5.00894 1.31251 5.98419 1.31252 7.21607 1.31253L7.25359 1.31253C7.28636 1.31253 7.31872 1.31253 7.3507 1.31252Z" fill="#1C274C"/>
</svg>
