<svg width="21" height="20" viewBox="0 0 21 20" fill="none" xmlns="http://www.w3.org/2000/svg">
<path d="M11.0281 14.5061C10.886 14.6615 10.6852 14.75 10.4746 14.75C10.264 14.75 10.0632 14.6615 9.92109 14.5061L5.92109 10.1311C5.64159 9.82538 5.66283 9.35098 5.96853 9.07148C6.27424 8.79198 6.74863 8.81322 7.02813 9.11892L9.72461 12.0682V1C9.72461 0.585787 10.0604 0.25 10.4746 0.25C10.8888 0.25 11.2246 0.585787 11.2246 1V12.0682L13.9211 9.11892C14.2006 8.81322 14.675 8.79198 14.9807 9.07148C15.2864 9.35098 15.3076 9.82537 15.0281 10.1311L11.0281 14.5061Z" fill="#333333"/>
<path d="M2.22461 13C2.22461 12.5858 1.88882 12.25 1.47461 12.25C1.0604 12.25 0.72461 12.5858 0.72461 13V13.0549C0.72459 14.4225 0.724573 15.5248 0.841134 16.3918C0.96215 17.2919 1.22104 18.0497 1.82296 18.6516C2.42488 19.2536 3.18275 19.5125 4.08286 19.6335C4.94983 19.75 6.05215 19.75 7.41974 19.75H13.5295C14.8971 19.75 15.9994 19.75 16.8664 19.6335C17.7665 19.5125 18.5243 19.2536 19.1263 18.6516C19.7282 18.0497 19.9871 17.2919 20.1081 16.3918C20.2246 15.5248 20.2246 14.4225 20.2246 13.0549V13C20.2246 12.5858 19.8888 12.25 19.4746 12.25C19.0604 12.25 18.7246 12.5858 18.7246 13C18.7246 14.4354 18.723 15.4365 18.6215 16.1919C18.5228 16.9257 18.3424 17.3142 18.0656 17.591C17.7888 17.8678 17.4003 18.0482 16.6665 18.1469C15.9111 18.2484 14.91 18.25 13.4746 18.25H7.47461C6.0392 18.25 5.03808 18.2484 4.28273 18.1469C3.54896 18.0482 3.16038 17.8678 2.88362 17.591C2.60686 17.3142 2.42641 16.9257 2.32776 16.1919C2.2262 15.4365 2.22461 14.4354 2.22461 13Z" fill="#333333"/>
</svg>
