<svg width="16" height="16" viewBox="0 0 16 16" fill="none" xmlns="http://www.w3.org/2000/svg">
<path fill-rule="evenodd" clip-rule="evenodd" d="M3.30217 1.5C3.31258 1.5 3.32302 1.5 3.3335 1.5L12.6982 1.5C13.1428 1.49998 13.5229 1.49996 13.8267 1.53828C14.1489 1.57892 14.4603 1.6702 14.716 1.91016C14.9763 2.15436 15.0797 2.45904 15.1252 2.77603C15.1669 3.06723 15.1669 3.42931 15.1668 3.84239L15.1668 4.36008C15.1668 4.68575 15.1669 4.9673 15.1425 5.20207C15.1164 5.45471 15.0592 5.69173 14.9219 5.91929C14.7856 6.14513 14.602 6.30907 14.3904 6.45602C14.1911 6.59446 13.9365 6.7378 13.637 6.90637L11.6754 8.01063C11.2289 8.26199 11.0734 8.3525 10.9696 8.44262C10.7312 8.64958 10.5947 8.87921 10.5306 9.16692C10.5031 9.28991 10.5002 9.44481 10.5002 9.91529L10.5002 11.7367C10.5002 12.3375 10.5002 12.8476 10.4384 13.2397C10.3727 13.6567 10.22 14.0566 9.82001 14.3068C9.42911 14.5513 8.9985 14.5289 8.58003 14.4295C8.177 14.3338 7.68034 14.1396 7.0844 13.9066L7.02648 13.884C6.74733 13.7749 6.5029 13.6793 6.30939 13.5794C6.10143 13.472 5.90829 13.3384 5.76053 13.1305C5.6111 12.9202 5.5512 12.6947 5.52448 12.4642C5.50012 12.254 5.50014 12.0018 5.50016 11.7204L5.50017 9.91529C5.50017 9.44481 5.4972 9.28991 5.46978 9.16692C5.40563 8.87921 5.26911 8.64958 5.03072 8.44262C4.92692 8.3525 4.77144 8.26199 4.32492 8.01063L2.3633 6.90637C2.06382 6.7378 1.80918 6.59446 1.60989 6.45602C1.39832 6.30907 1.21477 6.14513 1.07848 5.91929C0.941152 5.69173 0.883967 5.45471 0.857795 5.20207C0.833472 4.9673 0.833485 4.68575 0.833499 4.36008L0.833499 3.87644C0.833499 3.86505 0.833499 3.85369 0.833498 3.84238C0.833467 3.42931 0.833439 3.06723 0.875167 2.77603C0.920592 2.45904 1.024 2.15436 1.28428 1.91016C1.54005 1.6702 1.85146 1.57892 2.17365 1.53828C2.47745 1.49996 2.85754 1.49998 3.30217 1.5ZM2.2988 2.53042C2.07636 2.55848 2.00563 2.60461 1.9685 2.63944C1.93589 2.67004 1.89285 2.7239 1.86506 2.91789C1.8347 3.1297 1.8335 3.41912 1.8335 3.87644V4.33632C1.8335 4.69246 1.83412 4.92185 1.85247 5.09903C1.86957 5.26404 1.89891 5.34338 1.93466 5.40261C1.97143 5.46355 2.0325 5.532 2.18039 5.63473C2.3362 5.74296 2.54907 5.86339 2.87345 6.04599L4.81547 7.13922C4.83365 7.14945 4.85156 7.15953 4.86921 7.16946C5.24168 7.379 5.49535 7.52172 5.68629 7.68749C6.08053 8.02975 6.33348 8.44548 6.44581 8.9493C6.50041 9.19417 6.50031 9.46874 6.50018 9.85632C6.50017 9.87569 6.50017 9.89534 6.50017 9.91529V11.6949C6.50017 12.0097 6.50094 12.2033 6.51783 12.3491C6.53311 12.4809 6.55718 12.5252 6.5757 12.5512C6.59589 12.5797 6.63587 12.6225 6.76818 12.6909C6.90979 12.764 7.10489 12.8409 7.41298 12.9614C8.05365 13.2118 8.48459 13.379 8.81111 13.4566C9.13018 13.5323 9.23532 13.493 9.28972 13.459C9.335 13.4307 9.40502 13.3731 9.4506 13.084C9.49868 12.7791 9.50016 12.349 9.50016 11.6949V9.91529C9.50016 9.89535 9.50016 9.8757 9.50015 9.85633C9.50002 9.46875 9.49993 9.19417 9.55452 8.9493C9.66686 8.44547 9.9198 8.02975 10.314 7.68749C10.505 7.52172 10.7586 7.37901 11.1311 7.16947C11.1488 7.15954 11.1667 7.14946 11.1849 7.13921L13.1269 6.04599C13.4513 5.86339 13.6641 5.74296 13.8199 5.63473C13.9678 5.532 14.0289 5.46355 14.0657 5.40261C14.1014 5.34338 14.1308 5.26404 14.1479 5.09903C14.1662 4.92185 14.1668 4.69246 14.1668 4.33632V3.87644C14.1668 3.41912 14.1656 3.1297 14.1353 2.91789C14.1075 2.7239 14.0644 2.67004 14.0318 2.63944C13.9947 2.60461 13.924 2.55848 13.7015 2.53042C13.4678 2.50094 13.1515 2.5 12.6668 2.5H3.3335C2.84881 2.5 2.53253 2.50094 2.2988 2.53042Z" fill="white"/>
</svg>
