<svg width="16" height="16" viewBox="0 0 16 16" fill="none" xmlns="http://www.w3.org/2000/svg">
<path fill-rule="evenodd" clip-rule="evenodd" d="M8.00016 3.1665C7.29322 3.1665 6.72728 3.38514 5.37739 3.9251L3.50508 4.67402C2.83146 4.94347 2.36468 5.1309 2.06213 5.28951C2.03256 5.30501 2.00592 5.31956 1.98194 5.33317C2.00592 5.34678 2.03256 5.36133 2.06213 5.37683C2.36468 5.53545 2.83146 5.72287 3.50508 5.99232L5.37739 6.74124C6.72728 7.2812 7.29322 7.49984 8.00016 7.49984C8.7071 7.49984 9.27305 7.2812 10.6229 6.74124L12.4952 5.99232C13.1689 5.72287 13.6356 5.53545 13.9382 5.37683C13.9678 5.36133 13.9944 5.34678 14.0184 5.33317C13.9944 5.31956 13.9678 5.30501 13.9382 5.28951C13.6356 5.1309 13.1689 4.94347 12.4952 4.67402L10.6229 3.9251C9.27305 3.38514 8.7071 3.1665 8.00016 3.1665ZM5.08311 2.96577C6.3343 2.46514 7.08068 2.1665 8.00016 2.1665C8.91965 2.1665 9.66602 2.46514 10.9172 2.96577C10.9427 2.97597 10.9684 2.98625 10.9943 2.99662L12.8969 3.75764C13.5333 4.01218 14.0487 4.21835 14.4025 4.40385C14.5816 4.49772 14.7551 4.60416 14.8888 4.73246C15.0263 4.86429 15.1668 5.06422 15.1668 5.33317C15.1668 5.60212 15.0263 5.80205 14.8888 5.93388C14.7551 6.06219 14.5816 6.16862 14.4025 6.2625C14.0487 6.44799 13.5333 6.65416 12.8969 6.9087L10.9943 7.66972C10.9684 7.68009 10.9427 7.69037 10.9172 7.70057C9.66602 8.2012 8.91965 8.49984 8.00016 8.49984C7.08068 8.49984 6.3343 8.2012 5.08311 7.70057C5.05762 7.69037 5.03192 7.68009 5.006 7.66972L3.10346 6.90871C2.46707 6.65416 1.95163 6.44799 1.59781 6.2625C1.41874 6.16862 1.24527 6.06219 1.1115 5.93388C0.974061 5.80205 0.833496 5.60212 0.833496 5.33317C0.833496 5.06422 0.974061 4.86429 1.1115 4.73246C1.24527 4.60416 1.41874 4.49772 1.59781 4.40385C1.95163 4.21835 2.46708 4.01218 3.10347 3.75763L5.006 2.99662C5.03192 2.98625 5.05762 2.97597 5.08311 2.96577ZM1.66614 7.62654L1.66857 7.62866C1.67151 7.63121 1.67698 7.6359 1.68498 7.64258C1.70098 7.65594 1.72711 7.67726 1.76335 7.70527C1.83585 7.76129 1.94876 7.84404 2.10203 7.94344C2.40859 8.14225 2.87629 8.40747 3.50508 8.65899L5.37739 9.40791C6.72728 9.94787 7.29322 10.1665 8.00016 10.1665C8.7071 10.1665 9.27305 9.94787 10.6229 9.40791L12.4952 8.65899C13.124 8.40747 13.5917 8.14225 13.8983 7.94344C14.0516 7.84404 14.1645 7.76129 14.237 7.70527C14.2732 7.67726 14.2993 7.65594 14.3153 7.64258C14.3233 7.6359 14.3288 7.63121 14.3318 7.62866L14.3331 7.62747C14.3335 7.62718 14.3339 7.62681 14.3342 7.62652C14.5398 7.44332 14.855 7.46083 15.039 7.66596C15.2234 7.87152 15.2063 8.18763 15.0007 8.37203L14.6668 7.99984C15.0007 8.37203 15.0008 8.37193 15.0007 8.37203L14.9998 8.37286L14.9986 8.3739L14.9955 8.37663L14.9864 8.38461C14.979 8.39102 14.9689 8.39961 14.9563 8.4102C14.9309 8.43138 14.895 8.46059 14.8485 8.49653C14.7555 8.56839 14.6201 8.6672 14.4424 8.78245C14.087 9.01293 13.5618 9.30941 12.8666 9.58746L10.9943 10.3364C10.9684 10.3468 10.9427 10.357 10.9172 10.3672C9.66602 10.8679 8.91965 11.1665 8.00016 11.1665C7.08068 11.1665 6.3343 10.8679 5.08311 10.3672C5.05762 10.357 5.03192 10.3468 5.006 10.3364L3.13369 9.58746C2.43855 9.30941 1.9133 9.01293 1.55791 8.78245C1.3802 8.6672 1.24486 8.56839 1.15187 8.49653C1.10537 8.46059 1.06944 8.43138 1.04407 8.4102C1.03139 8.39961 1.02134 8.39102 1.01393 8.38461L1.0048 8.37663L1.00172 8.3739L1.00054 8.37286L0.999827 8.37222C0.999722 8.37212 0.99962 8.37203 1.3335 7.99984L0.999827 8.37222C0.794272 8.18782 0.77691 7.87152 0.961305 7.66596C1.14533 7.46082 1.46055 7.44332 1.66614 7.62654ZM14.3332 10.2941C14.3336 10.2938 14.3339 10.2935 14.3342 10.2932C14.5398 10.11 14.855 10.1275 15.039 10.3326C15.2234 10.5382 15.2063 10.8543 15.0007 11.0387L14.6668 10.6665C15.0007 11.0387 15.0008 11.0386 15.0007 11.0387L14.9998 11.0395L14.9986 11.0406L14.9955 11.0433L14.9864 11.0513C14.979 11.0577 14.9689 11.0663 14.9563 11.0769C14.9309 11.098 14.895 11.1273 14.8485 11.1632C14.7555 11.2351 14.6201 11.3339 14.4424 11.4491C14.087 11.6796 13.5618 11.9761 12.8666 12.2541L10.9943 13.0031C10.9684 13.0134 10.9427 13.0237 10.9172 13.0339C9.66602 13.5345 8.91965 13.8332 8.00016 13.8332C7.08068 13.8332 6.3343 13.5345 5.08311 13.0339C5.05762 13.0237 5.03192 13.0134 5.006 13.0031L3.13369 12.2541C2.43855 11.9761 1.9133 11.6796 1.55791 11.4491C1.3802 11.3339 1.24486 11.2351 1.15187 11.1632C1.10537 11.1273 1.06944 11.098 1.04407 11.0769C1.03139 11.0663 1.02134 11.0577 1.01393 11.0513L1.0048 11.0433L1.00172 11.0406L1.00054 11.0395L0.999827 11.0389C0.999722 11.0388 0.99962 11.0387 1.3335 10.6665L0.999827 11.0389C0.794272 10.8545 0.77691 10.5382 0.961305 10.3326C1.14532 10.1275 1.46052 10.11 1.6661 10.2932C1.66597 10.2931 1.66623 10.2933 1.6661 10.2932C1.66623 10.2933 1.66674 10.2937 1.66687 10.2939C1.66677 10.2938 1.66697 10.294 1.66687 10.2939L1.66857 10.2953C1.67151 10.2979 1.67698 10.3026 1.68498 10.3092C1.70098 10.3226 1.72711 10.3439 1.76335 10.3719C1.83585 10.428 1.94876 10.5107 2.10203 10.6101C2.40859 10.8089 2.87629 11.0741 3.50508 11.3257L5.37739 12.0746C6.72728 12.6145 7.29322 12.8332 8.00016 12.8332C8.7071 12.8332 9.27305 12.6145 10.6229 12.0746L12.4952 11.3257C13.124 11.0741 13.5917 10.8089 13.8983 10.6101C14.0516 10.5107 14.1645 10.428 14.237 10.3719C14.2732 10.3439 14.2993 10.3226 14.3153 10.3092C14.3233 10.3026 14.3288 10.2979 14.3318 10.2953L14.3332 10.2941Z" fill="#1C274C"/>
</svg>
