<svg width="17" height="16" viewBox="0 0 17 16" fill="none" xmlns="http://www.w3.org/2000/svg">
<path fill-rule="evenodd" clip-rule="evenodd" d="M10.312 1.74767C11.5311 0.528608 13.5076 0.528608 14.7267 1.74767C15.9457 2.96674 15.9457 4.94323 14.7267 6.16229L8.40312 12.4858C8.04184 12.8471 7.82917 13.0598 7.59258 13.2444C7.31371 13.4619 7.01198 13.6483 6.69272 13.8005C6.42185 13.9296 6.13651 14.0247 5.65177 14.1862L3.43102 14.9265L2.8963 15.1047C2.4626 15.2493 1.98443 15.1364 1.66116 14.8132C1.3379 14.4899 1.22502 14.0117 1.36959 13.578L2.28807 10.8226C2.44963 10.3378 2.54474 10.0525 2.67383 9.78161C2.82598 9.46235 3.01246 9.16061 3.22997 8.88175C3.41451 8.64515 3.62721 8.43247 3.98853 8.07118L10.312 1.74767ZM3.40796 13.8801L5.3023 13.2486C5.82971 13.0728 6.05379 12.9972 6.2625 12.8978C6.51619 12.7769 6.75596 12.6287 6.97756 12.4558C7.15986 12.3137 7.3277 12.147 7.72081 11.7539L12.7671 6.70761C12.2414 6.52218 11.564 6.17845 10.93 5.54437C10.2959 4.91029 9.95215 4.23296 9.76671 3.7072L4.7204 8.75352C4.32729 9.14663 4.16067 9.31446 4.01848 9.49677C3.84564 9.71836 3.69746 9.95813 3.57655 10.2118C3.47709 10.4205 3.40148 10.6446 3.22568 11.172L2.59423 13.0664L3.40796 13.8801ZM10.5778 2.89607C10.6006 3.01271 10.6392 3.17127 10.7035 3.35662C10.8483 3.77392 11.1217 4.32196 11.6371 4.83727C12.1524 5.35258 12.7004 5.62606 13.1177 5.77084C13.3031 5.83514 13.4616 5.87368 13.5783 5.89648L14.0195 5.45519C14.8481 4.62665 14.8481 3.28332 14.0195 2.45478C13.191 1.62624 11.8477 1.62624 11.0191 2.45478L10.5778 2.89607Z" fill="#333333"/>
</svg>
