<svg width="16" height="16" viewBox="0 0 16 16" fill="none" xmlns="http://www.w3.org/2000/svg">
<path d="M8 1.3335V4.00016" stroke="#1C274C" stroke-width="1.5" stroke-linecap="round"/>
<path d="M8.5 1.8335C8.5 1.55735 8.27614 1.3335 8 1.3335C7.72386 1.3335 7.5 1.55735 7.5 1.8335V4.50016C7.5 4.77631 7.72386 5.00016 8 5.00016C8.27614 5.00016 8.5 4.77631 8.5 4.50016V1.8335Z" fill="#1C274C"/>
<path d="M5.86126 3.43144C6.11563 3.32397 6.23472 3.03064 6.12724 2.77627C6.01977 2.5219 5.72644 2.40282 5.47207 2.51029C3.13888 3.49607 1.5 5.8062 1.5 8.50026C1.5 12.0901 4.41015 15.0003 8 15.0003C11.5899 15.0003 14.5 12.0901 14.5 8.50026C14.5 5.8062 12.8611 3.49607 10.5279 2.51029C10.2736 2.40282 9.98023 2.5219 9.87276 2.77627C9.76528 3.03064 9.88437 3.32397 10.1387 3.43144C12.1148 4.26634 13.5 6.22211 13.5 8.50026C13.5 11.5378 11.0376 14.0003 8 14.0003C4.96243 14.0003 2.5 11.5378 2.5 8.50026C2.5 6.22211 3.8852 4.26634 5.86126 3.43144Z" fill="#1C274C"/>
</svg>
