<svg width="24" height="28" viewBox="0 0 24 28" fill="none" xmlns="http://www.w3.org/2000/svg">
<path fill-rule="evenodd" clip-rule="evenodd" d="M23.64 7.49341L23.4533 7.16008C23.2125 6.757 22.8729 6.42199 22.4667 6.18675L13.52 1.02675C13.1149 0.791748 12.6551 0.667575 12.1867 0.666748H11.8C11.3316 0.667575 10.8717 0.791748 10.4667 1.02675L1.52 6.20008C1.11596 6.43376 0.780346 6.76937 0.546667 7.17341L0.36 7.50675C0.125 7.91187 0.000826666 8.37173 0 8.84008V19.1734C0.000826666 19.6418 0.125 20.1017 0.36 20.5067L0.546667 20.8401C0.786386 21.2394 1.12065 21.5737 1.52 21.8134L10.48 26.9734C10.8831 27.2133 11.3443 27.3378 11.8133 27.3334H12.1867C12.6551 27.3326 13.1149 27.2085 13.52 26.9734L22.4667 21.8001C22.8747 21.5717 23.2116 21.2347 23.44 20.8267L23.64 20.4934C23.8721 20.0871 23.9961 19.6281 24 19.1601V8.82675C23.9992 8.3584 23.8751 7.89853 23.64 7.49341ZM11.8 3.33341H12.1867L20 7.84008L12 12.4534L4 7.84008L11.8 3.33341ZM13.3333 24.0001L21.1333 19.4934L21.3333 19.1601V10.1467L13.3333 14.7734V24.0001Z" fill="white"/>
</svg>
