<svg width="24" height="24" viewBox="0 0 24 24" fill="none" xmlns="http://www.w3.org/2000/svg">
<path d="M18.39 5.01H17.45V4.98C17.45 3.34 16.23 2 14.74 2H9.27C7.78 2 6.56 3.34 6.56 4.98V5.01H5.62C3.63 5.01 2 6.79 2 8.99V18.02C2 20.21 3.62 22 5.62 22H18.38C20.37 22 22 20.22 22 18.02V8.99C22 6.8 20.38 5.01 18.38 5.01H18.39ZM8.32 4.98C8.32 4.41 8.74 3.94 9.26 3.94H14.73C15.25 3.94 15.67 4.4 15.67 4.98V5.01H8.31V4.98H8.32ZM20.24 18.02C20.24 19.14 19.41 20.06 18.39 20.06H5.63C4.61 20.06 3.78 19.14 3.78 18.02V8.99C3.78 7.87 4.61 6.95 5.63 6.95H18.39C19.41 6.95 20.24 7.87 20.24 8.99V18.02Z" fill="white"/>
<path d="M16.0296 12.0001C15.7396 11.7301 15.2796 11.7301 14.9996 12.0001L13.0296 13.8701C12.8896 14.0001 12.8096 14.1801 12.8096 14.3701C12.8096 14.5601 12.8896 14.7401 13.0296 14.8701C13.2896 15.1201 13.6996 15.1401 13.9896 14.9201H14.0096L14.7896 14.1801V17.4801C14.7896 17.8701 15.1196 18.1801 15.5196 18.1801C15.9196 18.1801 16.2496 17.8601 16.2496 17.4801V14.1801L16.9696 14.8701L16.9996 14.9001C17.2896 15.1401 17.7196 15.1301 17.9996 14.8701C18.1396 14.7401 18.2196 14.5601 18.2196 14.3701C18.2196 14.1801 18.1396 14.0001 17.9996 13.8701L16.0296 12.0001Z" fill="white"/>
</svg>
