<svg width="25" height="24" viewBox="0 0 25 24" fill="none" xmlns="http://www.w3.org/2000/svg">
<path fill-rule="evenodd" clip-rule="evenodd" d="M10.784 2.25002H14.1654C14.3818 2.24988 14.5703 2.24976 14.7484 2.27819C15.4516 2.39049 16.0602 2.82915 16.3892 3.46084C16.4725 3.62073 16.532 3.79961 16.6003 4.00494L16.7119 4.33984C16.7308 4.39653 16.7362 4.41258 16.7407 4.42522C16.9159 4.90933 17.3699 5.23659 17.8845 5.24964C17.8981 5.24998 17.9146 5.25004 17.9747 5.25004H20.9747C21.3889 5.25004 21.7247 5.58582 21.7247 6.00004C21.7247 6.41425 21.3889 6.75004 20.9747 6.75004H3.97461C3.5604 6.75004 3.22461 6.41425 3.22461 6.00004C3.22461 5.58582 3.5604 5.25004 3.97461 5.25004H6.97469C7.03474 5.25004 7.05131 5.24998 7.06484 5.24964C7.57949 5.23659 8.03351 4.90936 8.20863 4.42524C8.21324 4.41251 8.21853 4.39681 8.23752 4.33984L8.34913 4.00496C8.41742 3.79964 8.47693 3.62073 8.56019 3.46084C8.88914 2.82915 9.49774 2.39049 10.201 2.27819C10.3791 2.24976 10.5676 2.24988 10.784 2.25002ZM9.48276 5.25004C9.53427 5.14902 9.57992 5.04404 9.61919 4.93548C9.63111 4.90251 9.6428 4.86742 9.65783 4.82234L9.75763 4.52292C9.8488 4.24941 9.8698 4.19363 9.89062 4.15364C10.0003 3.94307 10.2031 3.79686 10.4376 3.75942C10.4821 3.75231 10.5416 3.75004 10.83 3.75004H14.1194C14.4077 3.75004 14.4673 3.75231 14.5118 3.75942C14.7463 3.79686 14.9491 3.94307 15.0588 4.15364C15.0796 4.19363 15.1006 4.2494 15.1918 4.52292L15.2915 4.82216L15.3302 4.9355C15.3695 5.04405 15.4151 5.14902 15.4666 5.25004H9.48276Z" fill="#B80000"/>
<path d="M6.3897 8.45015C6.36215 8.03685 6.00477 7.72415 5.59147 7.7517C5.17817 7.77925 4.86547 8.13663 4.89302 8.54993L5.35647 15.5017C5.44197 16.7844 5.51103 17.8205 5.673 18.6336C5.8414 19.4789 6.12782 20.185 6.71941 20.7385C7.31101 21.2919 8.03455 21.5308 8.88921 21.6425C9.71123 21.7501 10.7497 21.7501 12.0352 21.75H12.9141C14.1997 21.7501 15.2382 21.7501 16.0602 21.6425C16.9148 21.5308 17.6384 21.2919 18.23 20.7385C18.8216 20.185 19.108 19.4789 19.2764 18.6336C19.4384 17.8206 19.5074 16.7844 19.5929 15.5017L20.0564 8.54993C20.0839 8.13663 19.7712 7.77925 19.3579 7.7517C18.9446 7.72415 18.5872 8.03685 18.5597 8.45015L18.0997 15.3493C18.0099 16.6971 17.9459 17.6349 17.8053 18.3406C17.6689 19.025 17.4786 19.3873 17.2052 19.6431C16.9318 19.8989 16.5576 20.0647 15.8656 20.1552C15.1522 20.2485 14.2122 20.25 12.8614 20.25H12.088C10.7372 20.25 9.79716 20.2485 9.08376 20.1552C8.39176 20.0647 8.0176 19.8989 7.74419 19.6431C7.47078 19.3873 7.28044 19.025 7.14409 18.3406C7.00352 17.6349 6.9395 16.6971 6.84964 15.3493L6.3897 8.45015Z" fill="#B80000"/>
<path d="M9.90007 10.2538C10.3122 10.2125 10.6798 10.5133 10.721 10.9254L11.221 15.9254C11.2622 16.3376 10.9615 16.7051 10.5493 16.7463C10.1372 16.7875 9.76964 16.4868 9.72842 16.0747L9.22842 11.0747C9.18721 10.6625 9.48792 10.295 9.90007 10.2538Z" fill="#B80000"/>
<path d="M15.0493 10.2538C15.4615 10.295 15.7622 10.6625 15.721 11.0747L15.221 16.0747C15.1798 16.4868 14.8122 16.7875 14.4001 16.7463C13.9879 16.7051 13.6872 16.3376 13.7284 15.9254L14.2284 10.9254C14.2696 10.5133 14.6372 10.2125 15.0493 10.2538Z" fill="#B80000"/>
</svg>
