<svg width="17" height="16" viewBox="0 0 17 16" fill="none" xmlns="http://www.w3.org/2000/svg">
<path fill-rule="evenodd" clip-rule="evenodd" d="M8.50016 0.833252C8.64613 0.833252 8.7848 0.897033 8.87979 1.00786L10.8798 3.34119C11.0595 3.55085 11.0352 3.8665 10.8256 4.04621C10.6159 4.22592 10.3002 4.20164 10.1205 3.99198L9.00016 2.68488L9.00016 9.99992C9.00016 10.2761 8.77631 10.4999 8.50016 10.4999C8.22402 10.4999 8.00016 10.2761 8.00016 9.99992L8.00016 2.68488L6.87979 3.99198C6.70008 4.20164 6.38443 4.22592 6.17477 4.04621C5.96511 3.8665 5.94082 3.55085 6.12054 3.34119L8.12054 1.00786C8.21553 0.897033 8.3542 0.833252 8.50016 0.833252ZM5.16405 5.50123C5.44019 5.49969 5.66529 5.7223 5.66682 5.99844C5.66836 6.27458 5.44575 6.49968 5.16961 6.50121C4.44062 6.50527 3.92389 6.5242 3.53173 6.59624C3.15385 6.66565 2.93514 6.7771 2.77284 6.9394C2.58833 7.12391 2.46803 7.38296 2.40226 7.87214C2.33456 8.37571 2.3335 9.04312 2.3335 10.0001V10.6667C2.3335 11.6237 2.33456 12.2911 2.40226 12.7946C2.46803 13.2838 2.58833 13.5429 2.77284 13.7274C2.95734 13.9119 3.21639 14.0322 3.70558 14.098C4.20914 14.1657 4.87655 14.1667 5.8335 14.1667H11.1668C12.1238 14.1667 12.7912 14.1657 13.2948 14.098C13.7839 14.0322 14.043 13.9119 14.2275 13.7274C14.412 13.5429 14.5323 13.2838 14.5981 12.7946C14.6658 12.2911 14.6668 11.6237 14.6668 10.6667V10.0001C14.6668 9.04312 14.6658 8.37571 14.5981 7.87214C14.5323 7.38296 14.412 7.12391 14.2275 6.9394C14.0652 6.7771 13.8465 6.66565 13.4686 6.59624C13.0764 6.5242 12.5597 6.50527 11.8307 6.50121C11.5546 6.49968 11.332 6.27458 11.3335 5.99844C11.335 5.7223 11.5601 5.49969 11.8363 5.50123C12.5573 5.50524 13.1582 5.5225 13.6493 5.61269C14.1546 5.70551 14.5846 5.88234 14.9346 6.2323C15.3359 6.63357 15.5085 7.13882 15.5891 7.73889C15.6669 8.31687 15.6668 9.05175 15.6668 9.96348V10.7033C15.6668 11.615 15.6669 12.3499 15.5891 12.9279C15.5085 13.528 15.3359 14.0332 14.9346 14.4345C14.5333 14.8358 14.0281 15.0084 13.428 15.089C12.85 15.1668 12.1151 15.1667 11.2034 15.1667H5.79692C4.88519 15.1667 4.15031 15.1668 3.57233 15.089C2.97226 15.0084 2.46701 14.8358 2.06573 14.4345C1.66445 14.0332 1.49186 13.528 1.41118 12.9279C1.33347 12.3499 1.33348 11.615 1.3335 10.7033V9.96348C1.33348 9.05175 1.33347 8.31687 1.41118 7.73889C1.49186 7.13882 1.66445 6.63357 2.06573 6.2323C2.41568 5.88234 2.84573 5.70551 3.35106 5.61269C3.8421 5.5225 4.44303 5.50524 5.16405 5.50123Z" fill="#1C274C"/>
</svg>
