<svg width="25" height="24" viewBox="0 0 25 24" fill="none" xmlns="http://www.w3.org/2000/svg">
<path d="M7.72461 7C7.72461 7.41421 8.0604 7.75 8.47461 7.75H16.4746C16.8888 7.75 17.2246 7.41421 17.2246 7C17.2246 6.58579 16.8888 6.25 16.4746 6.25H8.47461C8.0604 6.25 7.72461 6.58579 7.72461 7Z" fill="white"/>
<path d="M12.4746 17.75C12.8888 17.75 13.2246 17.4142 13.2246 17V11.8107L14.9443 13.5303C15.2372 13.8232 15.712 13.8232 16.0049 13.5303C16.2978 13.2374 16.2978 12.7626 16.0049 12.4697L13.0049 9.46967C12.8643 9.32902 12.6735 9.25 12.4746 9.25C12.2757 9.25 12.0849 9.32902 11.9443 9.46967L8.94428 12.4697C8.65139 12.7626 8.65139 13.2374 8.94428 13.5303C9.23717 13.8232 9.71205 13.8232 10.0049 13.5303L11.7246 11.8107V17C11.7246 17.4142 12.0604 17.75 12.4746 17.75Z" fill="white"/>
<path fill-rule="evenodd" clip-rule="evenodd" d="M12.4172 1.25C10.1088 1.24999 8.2998 1.24998 6.88831 1.43975C5.44358 1.63399 4.30356 2.03933 3.40875 2.93414C2.51394 3.82895 2.1086 4.96897 1.91436 6.41371C1.72459 7.82519 1.7246 9.63423 1.72461 11.9426V12.0574C1.7246 14.3658 1.72459 16.1748 1.91436 17.5863C2.1086 19.031 2.51394 20.1711 3.40875 21.0659C4.30356 21.9607 5.44358 22.366 6.88831 22.5603C8.2998 22.75 10.1088 22.75 12.4172 22.75H12.532C14.8404 22.75 16.6494 22.75 18.0609 22.5603C19.5056 22.366 20.6457 21.9607 21.5405 21.0659C22.4353 20.1711 22.8406 19.031 23.0349 17.5863C23.2246 16.1748 23.2246 14.3658 23.2246 12.0574V11.9426C23.2246 9.63423 23.2246 7.82519 23.0349 6.41371C22.8406 4.96897 22.4353 3.82895 21.5405 2.93414C20.6457 2.03933 19.5056 1.63399 18.0609 1.43975C16.6494 1.24998 14.8404 1.24999 12.532 1.25H12.4172ZM4.46941 3.9948C5.03906 3.42514 5.80978 3.09825 7.08819 2.92637C8.38816 2.75159 10.0964 2.75 12.4746 2.75C14.8528 2.75 16.5611 2.75159 17.861 2.92637C19.1394 3.09825 19.9102 3.42514 20.4798 3.9948C21.0495 4.56445 21.3764 5.33517 21.5482 6.61358C21.723 7.91356 21.7246 9.62178 21.7246 12C21.7246 14.3782 21.723 16.0864 21.5482 17.3864C21.3764 18.6648 21.0495 19.4355 20.4798 20.0052C19.9102 20.5749 19.1394 20.9018 17.861 21.0736C16.5611 21.2484 14.8528 21.25 12.4746 21.25C10.0964 21.25 8.38816 21.2484 7.08819 21.0736C5.80978 20.9018 5.03906 20.5749 4.46941 20.0052C3.89975 19.4355 3.57286 18.6648 3.40098 17.3864C3.2262 16.0864 3.22461 14.3782 3.22461 12C3.22461 9.62178 3.2262 7.91356 3.40098 6.61358C3.57286 5.33517 3.89975 4.56445 4.46941 3.9948Z" fill="white"/>
</svg>
