<svg width="33" height="32" viewBox="0 0 33 32" fill="none" xmlns="http://www.w3.org/2000/svg">
<path d="M0.5 8C0.5 3.58172 4.08172 0 8.5 0H24.5C28.9183 0 32.5 3.58172 32.5 8V24C32.5 28.4183 28.9183 32 24.5 32H8.5C4.08172 32 0.5 28.4183 0.5 24V8Z" fill="#EFEFEF"/>
<path fill-rule="evenodd" clip-rule="evenodd" d="M16.5002 8.83325C16.6461 8.83325 16.7848 8.89703 16.8798 9.00786L18.8798 11.3412C19.0595 11.5509 19.0352 11.8665 18.8256 12.0462C18.6159 12.2259 18.3002 12.2016 18.1205 11.992L17.0002 10.6849L17.0002 17.9999C17.0002 18.2761 16.7763 18.4999 16.5002 18.4999C16.224 18.4999 16.0002 18.2761 16.0002 17.9999L16.0002 10.6849L14.8798 11.992C14.7001 12.2016 14.3844 12.2259 14.1748 12.0462C13.9651 11.8665 13.9408 11.5509 14.1205 11.3412L16.1205 9.00786C16.2155 8.89703 16.3542 8.83325 16.5002 8.83325ZM13.164 13.5012C13.4402 13.4997 13.6653 13.7223 13.6668 13.9984C13.6684 14.2746 13.4458 14.4997 13.1696 14.5012C12.4406 14.5053 11.9239 14.5242 11.5317 14.5962C11.1539 14.6656 10.9351 14.7771 10.7728 14.9394C10.5883 15.1239 10.468 15.383 10.4023 15.8721C10.3346 16.3757 10.3335 17.0431 10.3335 18.0001V18.6667C10.3335 19.6237 10.3346 20.2911 10.4023 20.7946C10.468 21.2838 10.5883 21.5429 10.7728 21.7274C10.9573 21.9119 11.2164 22.0322 11.7056 22.098C12.2091 22.1657 12.8766 22.1667 13.8335 22.1667H19.1668C20.1238 22.1667 20.7912 22.1657 21.2948 22.098C21.7839 22.0322 22.043 21.9119 22.2275 21.7274C22.412 21.5429 22.5323 21.2838 22.5981 20.7946C22.6658 20.2911 22.6668 19.6237 22.6668 18.6667V18.0001C22.6668 17.0431 22.6658 16.3757 22.5981 15.8721C22.5323 15.383 22.412 15.1239 22.2275 14.9394C22.0652 14.7771 21.8465 14.6656 21.4686 14.5962C21.0764 14.5242 20.5597 14.5053 19.8307 14.5012C19.5546 14.4997 19.332 14.2746 19.3335 13.9984C19.335 13.7223 19.5601 13.4997 19.8363 13.5012C20.5573 13.5052 21.1582 13.5225 21.6493 13.6127C22.1546 13.7055 22.5846 13.8823 22.9346 14.2323C23.3359 14.6336 23.5085 15.1388 23.5891 15.7389C23.6669 16.3169 23.6668 17.0518 23.6668 17.9635V18.7033C23.6668 19.615 23.6669 20.3499 23.5891 20.9279C23.5085 21.528 23.3359 22.0332 22.9346 22.4345C22.5333 22.8358 22.0281 23.0084 21.428 23.089C20.85 23.1668 20.1151 23.1667 19.2034 23.1667H13.7969C12.8852 23.1667 12.1503 23.1668 11.5723 23.089C10.9723 23.0084 10.467 22.8358 10.0657 22.4345C9.66445 22.0332 9.49186 21.528 9.41118 20.9279C9.33347 20.3499 9.33348 19.615 9.3335 18.7033V17.9635C9.33348 17.0518 9.33347 16.3169 9.41118 15.7389C9.49186 15.1388 9.66445 14.6336 10.0657 14.2323C10.4157 13.8823 10.8457 13.7055 11.3511 13.6127C11.8421 13.5225 12.443 13.5052 13.164 13.5012Z" fill="#1C274C"/>
</svg>
