<svg width="24" height="24" viewBox="0 0 24 24" fill="none" xmlns="http://www.w3.org/2000/svg">
<path d="M17 2H7C4.24 2 2 4.24 2 7V17C2 19.76 4.24 22 7 22H17C19.76 22 22 19.76 22 17V7C22 4.24 19.76 2 17 2ZM7.92 20.33C8.3 18.43 9.99 17 12 17C14.01 17 15.7 18.43 16.08 20.33H7.92ZM20.33 17C20.33 18.58 19.22 19.9 17.74 20.24C17.3 17.46 14.9 15.33 11.99 15.33C9.08 15.33 6.68 17.46 6.24 20.24C4.76 19.9 3.65 18.58 3.65 17V7C3.65 5.16 5.14 3.67 6.98 3.67H16.98C18.82 3.67 20.31 5.16 20.31 7V17H20.33Z" fill="white"/>
<path d="M12.0001 6.16992C9.70008 6.16992 7.83008 8.03992 7.83008 10.3399C7.83008 12.6399 9.70008 14.5099 12.0001 14.5099C14.3001 14.5099 16.1701 12.6399 16.1701 10.3399C16.1701 8.03992 14.3001 6.16992 12.0001 6.16992ZM12.0001 12.8299C10.6201 12.8299 9.50008 11.7099 9.50008 10.3299C9.50008 8.94992 10.6201 7.82992 12.0001 7.82992C13.3801 7.82992 14.5001 8.94992 14.5001 10.3299C14.5001 11.7099 13.3801 12.8299 12.0001 12.8299Z" fill="white"/>
</svg>
