<svg width="16" height="16" viewBox="0 0 16 16" fill="none" xmlns="http://www.w3.org/2000/svg">
<path fill-rule="evenodd" clip-rule="evenodd" d="M8.00016 0.833496C6.25126 0.833496 4.8335 2.25126 4.8335 4.00016C4.8335 5.74906 6.25126 7.16683 8.00016 7.16683C9.74906 7.16683 11.1668 5.74906 11.1668 4.00016C11.1668 2.25126 9.74906 0.833496 8.00016 0.833496ZM5.8335 4.00016C5.8335 2.80355 6.80355 1.8335 8.00016 1.8335C9.19678 1.8335 10.1668 2.80355 10.1668 4.00016C10.1668 5.19678 9.19678 6.16683 8.00016 6.16683C6.80355 6.16683 5.8335 5.19678 5.8335 4.00016Z" fill="#1C274C"/>
<path fill-rule="evenodd" clip-rule="evenodd" d="M8.00016 8.16683C6.64061 8.16683 5.38517 8.48066 4.45226 9.01376C3.53349 9.53877 2.8335 10.3403 2.8335 11.3335C2.8335 12.3267 3.53349 13.1282 4.45226 13.6532C5.38517 14.1863 6.64061 14.5002 8.00016 14.5002C9.35972 14.5002 10.6152 14.1863 11.5481 13.6532C12.4668 13.1282 13.1668 12.3267 13.1668 11.3335C13.1668 10.3403 12.4668 9.53877 11.5481 9.01376C10.6152 8.48066 9.35972 8.16683 8.00016 8.16683ZM3.8335 11.3335C3.8335 10.854 4.17817 10.3221 4.9484 9.882C5.70449 9.44995 6.78239 9.16683 8.00016 9.16683C9.21794 9.16683 10.2958 9.44995 11.0519 9.882C11.8222 10.3221 12.1668 10.854 12.1668 11.3335C12.1668 11.813 11.8222 12.3449 11.0519 12.785C10.2958 13.217 9.21794 13.5002 8.00016 13.5002C6.78239 13.5002 5.70449 13.217 4.9484 12.785C4.17817 12.3449 3.8335 11.813 3.8335 11.3335Z" fill="#1C274C"/>
</svg>
