<svg width="22" height="22" viewBox="0 0 22 22" fill="none" xmlns="http://www.w3.org/2000/svg">
<path fill-rule="evenodd" clip-rule="evenodd" d="M10.4995 1.75C5.66702 1.75 1.74951 5.66751 1.74951 10.5C1.74951 15.3325 5.66702 19.25 10.4995 19.25C15.332 19.25 19.2495 15.3325 19.2495 10.5C19.2495 5.66751 15.332 1.75 10.4995 1.75ZM0.249512 10.5C0.249512 4.83908 4.83859 0.25 10.4995 0.25C16.1604 0.25 20.7495 4.83908 20.7495 10.5C20.7495 13.0605 19.8106 15.4017 18.2584 17.1982L21.5298 20.4697C21.8227 20.7626 21.8227 21.2374 21.5298 21.5303C21.2369 21.8232 20.7621 21.8232 20.4692 21.5303L17.1977 18.2589C15.4013 19.8111 13.06 20.75 10.4995 20.75C4.83859 20.75 0.249512 16.1609 0.249512 10.5ZM7.24951 10.5C7.24951 10.0858 7.5853 9.75 7.99951 9.75H12.9995C13.4137 9.75 13.7495 10.0858 13.7495 10.5C13.7495 10.9142 13.4137 11.25 12.9995 11.25H7.99951C7.5853 11.25 7.24951 10.9142 7.24951 10.5Z" fill="#333333"/>
</svg>
