<svg width="25" height="25" viewBox="0 0 25 25" fill="none" xmlns="http://www.w3.org/2000/svg">
<path d="M17.7675 5.79289C18.158 5.40237 18.791 5.40237 19.1816 5.79289C19.5721 6.18342 19.5721 6.81643 19.1816 7.20696L13.8886 12.4999L19.1816 17.7929C19.5721 18.1834 19.5721 18.8164 19.1816 19.207C18.791 19.5975 18.158 19.5975 17.7675 19.207L12.4745 13.914L7.18157 19.207C6.79104 19.5975 6.15803 19.5975 5.7675 19.207C5.37698 18.8164 5.37698 18.1834 5.7675 17.7929L11.0605 12.4999L5.7675 7.20696C5.37698 6.81643 5.37698 6.18342 5.7675 5.79289C6.15803 5.40237 6.79104 5.40237 7.18157 5.79289L12.4745 11.0859L17.7675 5.79289Z" fill="black"/>
</svg>
