<svg width="19" height="19" viewBox="0 0 19 19" fill="none" xmlns="http://www.w3.org/2000/svg">
<path fill-rule="evenodd" clip-rule="evenodd" d="M16.8933 9.21422C16.8933 13.455 13.4555 16.8928 9.2147 16.8928C4.97395 16.8928 1.53613 13.455 1.53613 9.21422C1.53613 4.97346 4.97395 1.53564 9.2147 1.53564C13.4555 1.53564 16.8933 4.97346 16.8933 9.21422ZM6.88781 6.88734C7.11271 6.66244 7.47735 6.66244 7.70225 6.88734L9.21468 8.39977L10.7271 6.88736C10.952 6.66246 11.3166 6.66246 11.5415 6.88736C11.7664 7.11226 11.7664 7.47689 11.5415 7.70179L10.0291 9.21421L11.5415 10.7266C11.7664 10.9515 11.7664 11.3161 11.5415 11.541C11.3166 11.7659 10.952 11.7659 10.7271 11.541L9.21468 10.0286L7.70226 11.5411C7.47736 11.766 7.11273 11.766 6.88783 11.5411C6.66293 11.3162 6.66293 10.9515 6.88783 10.7266L8.40024 9.21421L6.88781 7.70177C6.66291 7.47687 6.66291 7.11224 6.88781 6.88734Z" fill="white"/>
</svg>
