<svg width="19" height="19" viewBox="0 0 19 19" fill="none" xmlns="http://www.w3.org/2000/svg">
<path fill-rule="evenodd" clip-rule="evenodd" d="M16.8933 9.21422C16.8933 13.455 13.4555 16.8928 9.2147 16.8928C4.97395 16.8928 1.53613 13.455 1.53613 9.21422C1.53613 4.97346 4.97395 1.53564 9.2147 1.53564C13.4555 1.53564 16.8933 4.97346 16.8933 9.21422ZM9.2147 13.6294C9.53276 13.6294 9.7906 13.3716 9.7906 13.0535V8.44636C9.7906 8.1283 9.53276 7.87047 9.2147 7.87047C8.89665 7.87047 8.63881 8.1283 8.63881 8.44636V13.0535C8.63881 13.3716 8.89665 13.6294 9.2147 13.6294ZM9.2147 5.37493C9.63878 5.37493 9.98256 5.71871 9.98256 6.14279C9.98256 6.56686 9.63878 6.91064 9.2147 6.91064C8.79063 6.91064 8.44685 6.56686 8.44685 6.14279C8.44685 5.71871 8.79063 5.37493 9.2147 5.37493Z" fill="white"/>
</svg>
