<svg width="19" height="19" viewBox="0 0 19 19" fill="none" xmlns="http://www.w3.org/2000/svg">
<path fill-rule="evenodd" clip-rule="evenodd" d="M16.8933 9.21422C16.8933 13.455 13.4555 16.8928 9.2147 16.8928C4.97395 16.8928 1.53613 13.455 1.53613 9.21422C1.53613 4.97346 4.97395 1.53564 9.2147 1.53564C13.4555 1.53564 16.8933 4.97346 16.8933 9.21422ZM12.3094 6.88735C12.5343 7.11225 12.5343 7.47689 12.3094 7.70179L8.47014 11.5411C8.24524 11.766 7.8806 11.766 7.6557 11.5411L6.11999 10.0054C5.89509 9.78046 5.89509 9.41583 6.11999 9.19093C6.34489 8.96603 6.70952 8.96603 6.93442 9.19093L8.06292 10.3194L9.77895 8.60339L11.495 6.88735C11.7199 6.66245 12.0845 6.66245 12.3094 6.88735Z" fill="white"/>
</svg>
