<svg width="19" height="19" viewBox="0 0 19 19" fill="none" xmlns="http://www.w3.org/2000/svg">
<path fill-rule="evenodd" clip-rule="evenodd" d="M4.07905 8.26319C6.31994 4.29004 7.44038 2.30347 9.2147 2.30347C10.989 2.30347 12.1095 4.29004 14.3503 8.26318L14.6296 8.75828C16.4918 12.0599 17.4228 13.7108 16.5813 14.9178C15.7398 16.1249 13.6579 16.1249 9.49394 16.1249H8.93546C4.77154 16.1249 2.68959 16.1249 1.84808 14.9178C1.00657 13.7108 1.93765 12.0599 3.79981 8.75828L4.07905 8.26319ZM9.2147 5.56686C9.53276 5.56686 9.7906 5.8247 9.7906 6.14275V9.98204C9.7906 10.3001 9.53276 10.5579 9.2147 10.5579C8.89665 10.5579 8.63881 10.3001 8.63881 9.98204V6.14275C8.63881 5.8247 8.89665 5.56686 9.2147 5.56686ZM9.2147 13.0535C9.63878 13.0535 9.98256 12.7097 9.98256 12.2856C9.98256 11.8615 9.63878 11.5178 9.2147 11.5178C8.79063 11.5178 8.44685 11.8615 8.44685 12.2856C8.44685 12.7097 8.79063 13.0535 9.2147 13.0535Z" fill="white"/>
</svg>
